<mxfile host="app.diagrams.net" modified="2023-11-09T14:51:35.279Z" agent="Mozilla/5.0 (Windows NT 10.0; Win64; x64) AppleWebKit/537.36 (KHTML, like Gecko) Chrome/119.0.0.0 Safari/537.36" etag="Ypc_WWf6S9VBCEkDEDJn" version="22.1.0" type="github">
  <diagram name="Página-1" id="pkjaOMn2NqMD779csTE3">
    <mxGraphModel dx="552" dy="288" grid="1" gridSize="10" guides="1" tooltips="1" connect="1" arrows="1" fold="1" page="1" pageScale="1" pageWidth="827" pageHeight="1169" math="0" shadow="0">
      <root>
        <mxCell id="0" />
        <mxCell id="1" parent="0" />
        <mxCell id="49VqL4aRQIc2pW3SHKcT-3" value="" style="rounded=0;whiteSpace=wrap;html=1;fillColor=#f8cecc;strokeColor=#b85450;" vertex="1" parent="1">
          <mxGeometry x="260" y="1082.5" width="320" height="50" as="geometry" />
        </mxCell>
        <mxCell id="49VqL4aRQIc2pW3SHKcT-7" value="" style="edgeStyle=orthogonalEdgeStyle;rounded=0;orthogonalLoop=1;jettySize=auto;html=1;labelBorderColor=none;fillColor=#f8cecc;strokeColor=#b85450;" edge="1" parent="1" source="49VqL4aRQIc2pW3SHKcT-2" target="49VqL4aRQIc2pW3SHKcT-4">
          <mxGeometry relative="1" as="geometry" />
        </mxCell>
        <mxCell id="49VqL4aRQIc2pW3SHKcT-8" value="" style="edgeStyle=orthogonalEdgeStyle;rounded=0;orthogonalLoop=1;jettySize=auto;html=1;fillColor=#f8cecc;strokeColor=#b85450;" edge="1" parent="1" source="49VqL4aRQIc2pW3SHKcT-2" target="49VqL4aRQIc2pW3SHKcT-5">
          <mxGeometry relative="1" as="geometry" />
        </mxCell>
        <mxCell id="49VqL4aRQIc2pW3SHKcT-2" value="&lt;font style=&quot;font-size: 8px;&quot;&gt;Authentication&lt;/font&gt;" style="rounded=1;whiteSpace=wrap;html=1;arcSize=48;glass=0;shadow=0;dashed=1;" vertex="1" parent="1">
          <mxGeometry x="384.5" y="1092.5" width="71" height="30" as="geometry" />
        </mxCell>
        <mxCell id="49VqL4aRQIc2pW3SHKcT-4" value="&lt;font style=&quot;font-size: 6px;&quot;&gt;AuthenticationParams&lt;/font&gt;" style="rounded=0;whiteSpace=wrap;html=1;" vertex="1" parent="1">
          <mxGeometry x="270" y="1093.44" width="80" height="28.12" as="geometry" />
        </mxCell>
        <mxCell id="49VqL4aRQIc2pW3SHKcT-5" value="&lt;font style=&quot;font-size: 8px;&quot;&gt;AccountEntity&lt;/font&gt;" style="rounded=0;whiteSpace=wrap;html=1;" vertex="1" parent="1">
          <mxGeometry x="490" y="1092.5" width="80" height="28.12" as="geometry" />
        </mxCell>
        <mxCell id="49VqL4aRQIc2pW3SHKcT-20" value="" style="edgeStyle=orthogonalEdgeStyle;rounded=0;orthogonalLoop=1;jettySize=auto;html=1;" edge="1" parent="1" source="49VqL4aRQIc2pW3SHKcT-9" target="49VqL4aRQIc2pW3SHKcT-2">
          <mxGeometry relative="1" as="geometry" />
        </mxCell>
        <mxCell id="49VqL4aRQIc2pW3SHKcT-9" value="" style="rounded=0;whiteSpace=wrap;html=1;" vertex="1" parent="1">
          <mxGeometry x="240" y="930" width="360" height="110" as="geometry" />
        </mxCell>
        <mxCell id="49VqL4aRQIc2pW3SHKcT-21" value="" style="edgeStyle=orthogonalEdgeStyle;rounded=0;orthogonalLoop=1;jettySize=auto;html=1;" edge="1" parent="1" source="49VqL4aRQIc2pW3SHKcT-10" target="49VqL4aRQIc2pW3SHKcT-4">
          <mxGeometry relative="1" as="geometry" />
        </mxCell>
        <mxCell id="49VqL4aRQIc2pW3SHKcT-10" value="&lt;font style=&quot;font-size: 6px;&quot;&gt;RemoteAuthenticationParams&lt;/font&gt;" style="rounded=0;whiteSpace=wrap;html=1;" vertex="1" parent="1">
          <mxGeometry x="250" y="1000" width="90" height="30" as="geometry" />
        </mxCell>
        <mxCell id="49VqL4aRQIc2pW3SHKcT-16" value="" style="edgeStyle=orthogonalEdgeStyle;rounded=0;orthogonalLoop=1;jettySize=auto;html=1;" edge="1" parent="1" source="49VqL4aRQIc2pW3SHKcT-12" target="49VqL4aRQIc2pW3SHKcT-10">
          <mxGeometry relative="1" as="geometry" />
        </mxCell>
        <mxCell id="49VqL4aRQIc2pW3SHKcT-17" value="" style="edgeStyle=orthogonalEdgeStyle;rounded=0;orthogonalLoop=1;jettySize=auto;html=1;" edge="1" parent="1" source="49VqL4aRQIc2pW3SHKcT-12" target="49VqL4aRQIc2pW3SHKcT-13">
          <mxGeometry relative="1" as="geometry" />
        </mxCell>
        <mxCell id="49VqL4aRQIc2pW3SHKcT-18" value="" style="edgeStyle=orthogonalEdgeStyle;rounded=0;orthogonalLoop=1;jettySize=auto;html=1;" edge="1" parent="1" source="49VqL4aRQIc2pW3SHKcT-12" target="49VqL4aRQIc2pW3SHKcT-15">
          <mxGeometry relative="1" as="geometry" />
        </mxCell>
        <mxCell id="49VqL4aRQIc2pW3SHKcT-24" value="" style="edgeStyle=orthogonalEdgeStyle;rounded=0;orthogonalLoop=1;jettySize=auto;html=1;" edge="1" parent="1" source="49VqL4aRQIc2pW3SHKcT-12" target="49VqL4aRQIc2pW3SHKcT-2">
          <mxGeometry relative="1" as="geometry" />
        </mxCell>
        <mxCell id="49VqL4aRQIc2pW3SHKcT-12" value="&lt;font style=&quot;font-size: 6px;&quot;&gt;RemoteAuthenticationParams&lt;/font&gt;" style="rounded=0;whiteSpace=wrap;html=1;" vertex="1" parent="1">
          <mxGeometry x="375" y="1000" width="90" height="30" as="geometry" />
        </mxCell>
        <mxCell id="49VqL4aRQIc2pW3SHKcT-22" value="" style="edgeStyle=orthogonalEdgeStyle;rounded=0;orthogonalLoop=1;jettySize=auto;html=1;" edge="1" parent="1" source="49VqL4aRQIc2pW3SHKcT-13" target="49VqL4aRQIc2pW3SHKcT-5">
          <mxGeometry relative="1" as="geometry" />
        </mxCell>
        <mxCell id="49VqL4aRQIc2pW3SHKcT-13" value="&lt;font style=&quot;font-size: 6px;&quot;&gt;RemoteAuthenticationParams&lt;/font&gt;" style="rounded=0;whiteSpace=wrap;html=1;" vertex="1" parent="1">
          <mxGeometry x="500" y="1000" width="90" height="30" as="geometry" />
        </mxCell>
        <mxCell id="49VqL4aRQIc2pW3SHKcT-15" value="&lt;font style=&quot;font-size: 8px;&quot;&gt;HttpClient&lt;/font&gt;" style="rounded=1;whiteSpace=wrap;html=1;arcSize=48;glass=0;shadow=0;dashed=1;" vertex="1" parent="1">
          <mxGeometry x="384.5" y="940" width="71" height="30" as="geometry" />
        </mxCell>
        <mxCell id="49VqL4aRQIc2pW3SHKcT-26" value="" style="edgeStyle=orthogonalEdgeStyle;orthogonalLoop=1;jettySize=auto;html=1;entryX=0.875;entryY=0;entryDx=0;entryDy=0;entryPerimeter=0;rounded=0;labelBorderColor=none;labelBackgroundColor=#FFFFFF;" edge="1" parent="1" target="49VqL4aRQIc2pW3SHKcT-4">
          <mxGeometry relative="1" as="geometry">
            <mxPoint x="384.5" y="1030.44" as="sourcePoint" />
            <mxPoint x="384.5" y="1093.44" as="targetPoint" />
            <Array as="points">
              <mxPoint x="385" y="1060" />
              <mxPoint x="340" y="1060" />
            </Array>
          </mxGeometry>
        </mxCell>
        <mxCell id="49VqL4aRQIc2pW3SHKcT-31" value="Fraca dependência" style="edgeLabel;html=1;align=center;verticalAlign=middle;resizable=0;points=[];fontSize=5;fontFamily=Helvetica;fontColor=default;" vertex="1" connectable="0" parent="49VqL4aRQIc2pW3SHKcT-26">
          <mxGeometry x="0.2076" relative="1" as="geometry">
            <mxPoint x="11" as="offset" />
          </mxGeometry>
        </mxCell>
        <mxCell id="49VqL4aRQIc2pW3SHKcT-27" value="" style="edgeStyle=orthogonalEdgeStyle;rounded=0;orthogonalLoop=1;jettySize=auto;html=1;entryX=0.143;entryY=-0.031;entryDx=0;entryDy=0;entryPerimeter=0;" edge="1" parent="1" target="49VqL4aRQIc2pW3SHKcT-5">
          <mxGeometry relative="1" as="geometry">
            <mxPoint x="455.12" y="1030.44" as="sourcePoint" />
            <mxPoint x="455.12" y="1093.44" as="targetPoint" />
            <Array as="points">
              <mxPoint x="455" y="1060" />
              <mxPoint x="501" y="1060" />
            </Array>
          </mxGeometry>
        </mxCell>
        <mxCell id="49VqL4aRQIc2pW3SHKcT-32" value="Fraca dependência" style="edgeLabel;html=1;align=center;verticalAlign=middle;resizable=0;points=[];fontSize=5;fontFamily=Helvetica;fontColor=default;" vertex="1" connectable="0" parent="1">
          <mxGeometry x="479.99999999999983" y="1060" as="geometry" />
        </mxCell>
      </root>
    </mxGraphModel>
  </diagram>
</mxfile>
